<svg width="10" height="17" viewBox="0 0 10 17" fill="none" xmlns="http://www.w3.org/2000/svg">
<path d="M0 1.70017C0 1.46215 -1.71777e-07 1.34483 0.0133332 1.24622C0.0557571 0.934598 0.196715 0.645606 0.414799 0.423137C0.632884 0.200669 0.91618 0.0568779 1.22167 0.0136012C1.31667 -1.7523e-07 1.43333 0 1.66667 0C1.9 0 2.015 -1.7523e-07 2.11167 0.0136012C2.41715 0.0568779 2.70045 0.200669 2.91853 0.423137C3.13662 0.645606 3.27758 0.934598 3.32 1.24622C3.33333 1.34313 3.33333 1.46215 3.33333 1.70017C3.33333 1.93819 3.33333 2.05551 3.32 2.15412C3.27758 2.46574 3.13662 2.75473 2.91853 2.9772C2.70045 3.19967 2.41715 3.34346 2.11167 3.38674C2.01667 3.40034 1.9 3.40034 1.66667 3.40034C1.43333 3.40034 1.31833 3.40034 1.22167 3.38674C0.91618 3.34346 0.632884 3.19967 0.414799 2.9772C0.196715 2.75473 0.0557571 2.46574 0.0133332 2.15412C-1.71777e-07 2.05721 0 1.93819 0 1.70017ZM0 8.50085C0 8.26283 -1.71777e-07 8.14551 0.0133332 8.0469C0.0557571 7.73528 0.196715 7.44629 0.414799 7.22382C0.632884 7.00135 0.91618 6.85756 1.22167 6.81428C1.31667 6.80068 1.43333 6.80068 1.66667 6.80068C1.9 6.80068 2.015 6.80068 2.11167 6.81428C2.41715 6.85756 2.70045 7.00135 2.91853 7.22382C3.13662 7.44629 3.27758 7.73528 3.32 8.0469C3.33333 8.14381 3.33333 8.26283 3.33333 8.50085C3.33333 8.73887 3.33333 8.85619 3.32 8.9548C3.27758 9.26642 3.13662 9.55541 2.91853 9.77788C2.70045 10.0004 2.41715 10.1441 2.11167 10.1874C2.01667 10.201 1.9 10.201 1.66667 10.201C1.43333 10.201 1.31833 10.201 1.22167 10.1874C0.91618 10.1441 0.632884 10.0004 0.414799 9.77788C0.196715 9.55541 0.0557571 9.26642 0.0133332 8.9548C-1.71777e-07 8.85789 0 8.73887 0 8.50085ZM0 15.3015C0 15.0652 -1.71777e-07 14.9462 0.0133332 14.8476C0.0560055 14.5365 0.196868 14.2481 0.414595 14.026C0.632322 13.8039 0.915058 13.6602 1.22 13.6167C1.31833 13.6031 1.43333 13.6031 1.665 13.6031C1.89667 13.6031 2.015 13.6031 2.11 13.6167C2.41494 13.6602 2.69768 13.8039 2.9154 14.026C3.13313 14.2481 3.27399 14.5365 3.31667 14.8476C3.33 14.9462 3.33 15.0652 3.33 15.3015C3.33 15.5379 3.33 15.6569 3.31667 15.7555C3.27399 16.0665 3.13313 16.355 2.9154 16.5771C2.69768 16.7992 2.41494 16.9429 2.11 16.9864C2.01333 17 1.89667 17 1.665 17C1.43333 17 1.31667 17 1.22 16.9864C0.915058 16.9429 0.632322 16.7992 0.414595 16.5771C0.196868 16.355 0.0560055 16.0665 0.0133332 15.7555C-1.71777e-07 15.6569 0 15.5379 0 15.3015ZM6.66667 1.70017C6.66667 1.46215 6.66667 1.34483 6.68 1.24622C6.72242 0.934598 6.86338 0.645606 7.08147 0.423137C7.29955 0.200669 7.58285 0.0568779 7.88833 0.0136012C7.98333 -1.7523e-07 8.1 0 8.33333 0C8.56667 0 8.68167 -1.7523e-07 8.77833 0.0136012C9.08382 0.0568779 9.36712 0.200669 9.5852 0.423137C9.80329 0.645606 9.94424 0.934598 9.98667 1.24622C10 1.34313 10 1.46215 10 1.70017C10 1.93819 10 2.05551 9.98667 2.15412C9.94424 2.46574 9.80329 2.75473 9.5852 2.9772C9.36712 3.19967 9.08382 3.34346 8.77833 3.38674C8.68333 3.40034 8.56667 3.40034 8.33333 3.40034C8.1 3.40034 7.985 3.40034 7.88833 3.38674C7.58285 3.34346 7.29955 3.19967 7.08147 2.9772C6.86338 2.75473 6.72242 2.46574 6.68 2.15412C6.66667 2.05721 6.66667 1.93819 6.66667 1.70017ZM6.66667 8.50085C6.66667 8.26283 6.66667 8.14551 6.68 8.0469C6.72242 7.73528 6.86338 7.44629 7.08147 7.22382C7.29955 7.00135 7.58285 6.85756 7.88833 6.81428C7.98333 6.80068 8.1 6.80068 8.33333 6.80068C8.56667 6.80068 8.68167 6.80068 8.77833 6.81428C9.08382 6.85756 9.36712 7.00135 9.5852 7.22382C9.80329 7.44629 9.94424 7.73528 9.98667 8.0469C10 8.14381 10 8.26283 10 8.50085C10 8.73887 10 8.85619 9.98667 8.9548C9.94424 9.26642 9.80329 9.55541 9.5852 9.77788C9.36712 10.0004 9.08382 10.1441 8.77833 10.1874C8.68333 10.201 8.56667 10.201 8.33333 10.201C8.1 10.201 7.985 10.201 7.88833 10.1874C7.58285 10.1441 7.29955 10.0004 7.08147 9.77788C6.86338 9.55541 6.72242 9.26642 6.68 8.9548C6.66667 8.85789 6.66667 8.73887 6.66667 8.50085ZM6.66667 15.3015C6.66667 15.0652 6.66667 14.9462 6.68 14.8476C6.72267 14.5365 6.86354 14.2481 7.08126 14.026C7.29899 13.8039 7.58173 13.6602 7.88667 13.6167C7.985 13.6031 8.1 13.6031 8.33167 13.6031C8.565 13.6031 8.68167 13.6031 8.77667 13.6167C9.08161 13.6602 9.36434 13.8039 9.58207 14.026C9.7998 14.2481 9.94066 14.5365 9.98333 14.8476C9.99667 14.9462 9.99667 15.0652 9.99667 15.3015C9.99667 15.5379 9.99667 15.6569 9.98333 15.7555C9.94066 16.0665 9.7998 16.355 9.58207 16.5771C9.36434 16.7992 9.08161 16.9429 8.77667 16.9864C8.68 17 8.56333 17 8.33167 17C8.1 17 7.98333 17 7.88667 16.9864C7.58173 16.9429 7.29899 16.7992 7.08126 16.5771C6.86354 16.355 6.72267 16.0665 6.68 15.7555C6.66667 15.6569 6.66667 15.5379 6.66667 15.3015Z" fill="#D9D9D9"/>
</svg>
