<svg width="23" height="23" viewBox="0 0 23 23" fill="none" xmlns="http://www.w3.org/2000/svg">
<path d="M9.38331 20.2488L9.01665 17.3155C8.81804 17.2391 8.63088 17.1475 8.45519 17.0405C8.2795 16.9336 8.10762 16.819 7.93957 16.6968L5.21248 17.8426L2.69165 13.4884L5.05207 11.7009C5.03679 11.594 5.02915 11.4909 5.02915 11.3915V10.7728C5.02915 10.6735 5.03679 10.5704 5.05207 10.4634L2.69165 8.67592L5.21248 4.32176L7.93957 5.46759C8.10762 5.34537 8.28331 5.23079 8.46665 5.12384C8.64998 5.0169 8.83331 4.92523 9.01665 4.84884L9.38331 1.91551H14.425L14.7916 4.84884C14.9903 4.92523 15.1774 5.0169 15.3531 5.12384C15.5288 5.23079 15.7007 5.34537 15.8687 5.46759L18.5958 4.32176L21.1166 8.67592L18.7562 10.4634C18.7715 10.5704 18.7791 10.6735 18.7791 10.7728V11.3915C18.7791 11.4909 18.7639 11.594 18.7333 11.7009L21.0937 13.4884L18.5729 17.8426L15.8687 16.6968C15.7007 16.819 15.525 16.9336 15.3416 17.0405C15.1583 17.1475 14.975 17.2391 14.7916 17.3155L14.425 20.2488H9.38331ZM10.9875 18.4155H12.7979L13.1187 15.9863C13.5923 15.8641 14.0316 15.6846 14.4364 15.4478C14.8413 15.211 15.2118 14.9245 15.5479 14.5884L17.8166 15.528L18.7104 13.9697L16.7396 12.4801C16.816 12.2662 16.8694 12.0409 16.9 11.804C16.9305 11.5672 16.9458 11.3266 16.9458 11.0822C16.9458 10.8377 16.9305 10.5971 16.9 10.3603C16.8694 10.1235 16.816 9.89815 16.7396 9.68426L18.7104 8.19467L17.8166 6.63634L15.5479 7.59884C15.2118 7.24745 14.8413 6.95336 14.4364 6.71655C14.0316 6.47974 13.5923 6.30023 13.1187 6.17801L12.8208 3.74884H11.0104L10.6896 6.17801C10.216 6.30023 9.77672 6.47974 9.37186 6.71655C8.967 6.95336 8.59651 7.23981 8.2604 7.57592L5.99165 6.63634L5.0979 8.19467L7.06873 9.66134C6.99234 9.89051 6.93887 10.1197 6.90832 10.3488C6.87776 10.578 6.86248 10.8225 6.86248 11.0822C6.86248 11.3266 6.87776 11.5634 6.90832 11.7926C6.93887 12.0218 6.99234 12.2509 7.06873 12.4801L5.0979 13.9697L5.99165 15.528L8.2604 14.5655C8.59651 14.9169 8.967 15.211 9.37186 15.4478C9.77672 15.6846 10.216 15.8641 10.6896 15.9863L10.9875 18.4155ZM11.95 14.2905C12.8361 14.2905 13.5923 13.9773 14.2187 13.3509C14.8451 12.7245 15.1583 11.9683 15.1583 11.0822C15.1583 10.1961 14.8451 9.43981 14.2187 8.81343C13.5923 8.18704 12.8361 7.87384 11.95 7.87384C11.0486 7.87384 10.2885 8.18704 9.66977 8.81343C9.05102 9.43981 8.74165 10.1961 8.74165 11.0822C8.74165 11.9683 9.05102 12.7245 9.66977 13.3509C10.2885 13.9773 11.0486 14.2905 11.95 14.2905Z" fill="#434343"/>
</svg>
